<?xml version="1.0" encoding="UTF-8"?><svg id="Layer_2" xmlns="http://www.w3.org/2000/svg" viewBox="0 0 185.43 80.17"><defs><style>.cls-1{fill:#f8d707;}.cls-2{fill:#fff;}.cls-3{fill:#fed600;}.cls-4{fill:#134b96;}</style></defs><g id="Layer_1-2"><path class="cls-2" d="m71.97,29.2c-.46.23-.92.44-1.37.63-1.57.55-1.94-.42-2.02-1.09-.01-.47-.02-1.07-.02-1.86v-9.12h3.57l3.14-7.82h-6.71V.42l-9.22,3.1v6.42h-3.11v7.82h3.11v9.97c0,2.49.08,4.13.23,4.97.21,1.28.6,2.35,1.16,3.15.59.84,1.49,1.51,2.68,2.01,1.13.47,2.39.71,3.77.71,2.48,0,4.54-.72,6.64-1.91l-1.86-7.46Z"/><path class="cls-1" d="m156.22,23.71c0,8.2-6.65,14.85-14.85,14.85s-14.85-6.65-14.85-14.85,6.65-14.85,14.85-14.85,14.85,6.65,14.85,14.85Z"/><polygon class="cls-4" points="132.03 14.37 142.21 20.1 150.71 14.37 144.97 22.87 150.71 33.05 140.53 27.31 132.03 33.05 137.77 24.54 132.03 14.37"/><path class="cls-2" d="m24.65,13.15c-2.27-2.51-5.18-3.79-8.64-3.79-2.29,0-4.37.68-6.22,2.03V0L.59,4.3v33.68h8.72v-1.91c.6.49,1.24.91,1.92,1.26,1.59.82,3.23,1.23,4.88,1.23,3.33,0,6.18-1.33,8.5-3.96,2.27-2.58,3.43-6.25,3.43-10.91s-1.14-8.07-3.38-10.55Zm-9.96,17.33c-3.14,0-5.69-3.03-5.69-6.77s2.55-6.77,5.69-6.77,5.69,3.03,5.69,6.77-2.55,6.77-5.69,6.77Z"/><path class="cls-2" d="m54.09,28.47h-7.08c-.44.89-1.11,1.6-1.9,2.05-.49.37-1.1.55-1.84.55-1.22,0-2.21-.42-3.03-1.29-.03-.04-.07-.08-.1-.13-.87-.94-1.41-2.27-1.41-3.76h8.89s0-.02,0,0h8.3v.04c.1-5.48-1.06-9.65-3.46-12.39-2.44-2.78-5.78-4.19-9.94-4.19-3.73,0-6.86,1.34-9.31,4-2.42,2.62-3.65,6.26-3.65,10.8,0,3.8.93,7.01,2.77,9.55,2.37,3.22,6.03,4.86,10.87,4.86,3.05,0,5.65-.73,7.72-2.16,2.08-1.44,3.61-3.54,4.57-6.25l.47-1.35-1.87-.33Zm-13.93-10.95c.73-1.03,1.64-1.54,2.77-1.54,1.05,0,1.91.48,2.65,1.46.55.73.91,1.77,1.08,3.09h-7.53c.14-1.23.49-2.23,1.04-3.01Z"/><path class="cls-2" d="m124.07,16.84c-.36-1.41-.96-2.61-1.76-3.59-.81-.98-1.86-1.75-3.13-2.29-1.26-.53-2.79-.8-4.56-.8-1.22,0-2.53.27-3.89.8-1.1.43-2.12,1.01-3.02,1.73V.26l-9.56,3.45v34.56h9.56v-14.65c0-.87.08-1.66.25-2.33.26-.94.71-1.66,1.35-2.12.65-.47,1.42-.7,2.34-.7,1.02,0,1.82.38,2.44,1.16.64.8.96,1.96.96,3.44v15.19h9.55v-16.83c0-1.66-.18-3.21-.53-4.59Z"/><path class="cls-2" d="m184.62,17.58c-.54-1.84-1.31-3.36-2.27-4.53-.97-1.18-2.13-2.06-3.45-2.62-2.36-.99-5.11-1.21-8.07-.03-1.05.42-2,.97-2.84,1.63v-1.88h-9.5v37.2l.64-.25c1.41-.54,2.84-1.08,4.27-1.61,1.43-.53,2.87-1.04,4.33-1.55l.32-.11v-7.5c1.71,1.27,3.75,1.91,6.07,1.91,1.4,0,2.79-.27,4.15-.8,1.37-.53,2.6-1.39,3.67-2.55,1.06-1.15,1.91-2.63,2.55-4.41.63-1.77.95-3.91.95-6.35s-.27-4.75-.81-6.57Zm-9.02,6.3c0,2.39-.35,4.09-1.05,5.04-.67.92-1.6,1.36-2.84,1.36-.68,0-1.36-.18-2.01-.54-.62-.34-1.18-.78-1.66-1.3v-8.91c.51-.58,1.12-1.03,1.8-1.36.73-.35,1.45-.53,2.14-.53,1.11,0,1.96.46,2.58,1.4.65.99,1.01,2.62,1.04,4.84Z"/><path class="cls-2" d="m96.08,28.97c-.07-1.38-.33-2.57-.77-3.56-.44-1-1.08-1.86-1.9-2.57-.8-.69-1.81-1.28-2.99-1.76-1.15-.46-2.51-.9-4.03-1.3-1.2-.33-1.75-.62-2-.8-.29-.22-.44-.48-.46-.81-.01-.25.12-.51.4-.77.3-.28.75-.44,1.32-.47.6-.03,1.45.05,2.55.24,1.08.19,2.35.68,3.76,1.46l.53.29,2.33-7.22-.38-.19c-1.56-.78-3.14-1.37-4.7-1.73-1.57-.37-3.2-.52-4.86-.43-3.19.16-5.65,1.12-7.3,2.83-1.66,1.72-2.43,3.91-2.3,6.5.06,1.19.28,2.25.64,3.14.37.91.93,1.72,1.67,2.39.72.66,1.66,1.25,2.8,1.75,1.11.49,2.46.95,4.01,1.39,1.09.33,1.9.66,2.4.95.4.24.6.61.63,1.18.03.48-.13.8-.5,1.02-.45.28-1.02.43-1.69.47-.86.04-1.92-.11-3.13-.45-1.23-.35-2.58-.9-4.02-1.65l-.51-.27-2.5,7.01.36.21c1.63.93,3.37,1.64,5.16,2.11,1.51.4,3.02.6,4.48.6.28,0,.55,0,.83-.02,1.56-.08,3-.35,4.27-.79,1.29-.45,2.39-1.09,3.27-1.89.89-.81,1.57-1.8,2.03-2.96.46-1.15.66-2.46.58-3.88Z"/><path class="cls-3" d="m19.21,80.17h114.77c1.47,0,2.8-.89,3.35-2.25l12.04-29.4c.98-2.38-.78-5-3.35-5H31.25c-1.47,0-2.8.89-3.35,2.25l-12.04,29.4c-.98,2.38.78,5,3.35,5Z"/><path class="cls-4" d="m52.48,48.93c3.71,0,7.06.36,7.06,4.78,0,.75-.14,1.82-.43,3.14-1.53,6.74-3.78,8.16-9.55,8.16h-2.75l-2.1,9.09h-7.06l5.81-25.17h9.02Zm-4.56,11.27h1.35c1.82,0,2.28-.36,2.67-2.03l.53-2.25c.07-.32.11-.68.11-.89,0-.96-.46-1.28-1.75-1.28h-1.43l-1.5,6.45Z"/><path class="cls-4" d="m72.91,48.93c3.24,0,6.02,1.03,6.02,4.78,0,2.32-.89,5.56-1.85,7.02-.78,1.18-1.85,1.89-3.64,2.42l2.25,10.94h-7.24l-1.39-10.3h-.53l-2.39,10.3h-7.17l5.81-25.17h10.12Zm-5.28,9.95h1.82c1.57,0,1.89-.61,2.14-1.85l.18-.89c.07-.43.14-.82.14-1,0-.89-.46-1.21-1.82-1.21h-1.28l-1.18,4.96Z"/><path class="cls-4" d="m84.14,74.09h-7.13l5.81-25.17h7.13l-5.81,25.17Z"/><path class="cls-4" d="m126.45,53.81h-6.67l-1.18,5.1h6.17l-1.11,4.81h-6.17l-1.28,5.53h6.67l-1.11,4.85h-13.76l5.81-25.17h13.76l-1.14,4.88Z"/><path class="cls-4" d="m100.91,74.09h-9.66l1.07-25.17h6.81l-1.78,19.39,7.09-19.39h7.16l-10.69,25.17Z"/><path class="cls-3" d="m15.48,58.49h-6.23c-.87,0-1.65.53-1.98,1.33L.16,77.21c-.58,1.41.46,2.95,1.98,2.95h6.23c.87,0,1.65-.53,1.98-1.33l7.1-17.39c.58-1.41-.46-2.95-1.98-2.95Z"/><path class="cls-3" d="m157.03,58.49h-6.23c-.87,0-1.65.53-1.98,1.33l-7.1,17.39c-.58,1.41.46,2.95,1.98,2.95h6.23c.87,0,1.65-.53,1.98-1.33l7.1-17.39c.58-1.41-.46-2.95-1.98-2.95Z"/></g></svg>