<?xml version="1.0" encoding="UTF-8"?><svg id="Layer_2" xmlns="http://www.w3.org/2000/svg" viewBox="0 0 68.15 27.57"><defs><style>.cls-1{fill:#fd0;}</style></defs><g id="Layer_1-2"><path class="cls-1" d="m61.26,24.36c-.32,0-.54-.14-.73-.45-.18-.27-.32-.54-.36-.82-.09-.27-.09-.59-.09-.86.05-1.04.27-2.54.68-4.4.23-.77.36-1.36.36-1.77l-.05-.54c-1.04.09-1.9.41-2.63,1-.18.18-.41.23-.64.23-.27,0-.54-.14-.77-.41-.23-.32-.32-.59-.32-.77,0-.27.14-.5.41-.63.41-.36,1.72-.73,3.9-1.13.5-.04.86-.27,1-.73.59-1.95,1.22-3.99,1.95-6.03.45-1.22.86-2.4,1.22-3.54-.18-.09-.5-.09-.95-.09-2.99,0-4.99.5-5.99,1.45-.18.23-.41.32-.63.32s-.5-.14-.82-.36c-.41-.27-.63-.63-.63-1.09,0-.59.36-1,1.04-1.18,1.5-.63,3.22-.95,5.17-.95,1.04,0,2.04.09,3.08.23.77.05,1.31.36,1.68.86.32.41.5.86.5,1.41,0,.63-.32,1.63-.91,2.9l-.14.32c-.86,1.54-1.68,3.63-2.58,6.26.27.18.5.32.73.36.23.05.45.14.63.23.18.09.27.27.32.54,0,.18-.14.36-.41.45l-.95-.18c-.14,0-.36.05-.59.14-.27.09-.5.59-.68,1.41l-.09.32-.27,1.09c-.73,2.22-1.04,3.85-1.04,4.76,0,.36,0,.68.09,1.04v.09c0,.27-.14.45-.41.54h-.09Z"/><path class="cls-1" d="m61.43,24.86h-.17c-.5,0-.89-.24-1.16-.71-.23-.34-.37-.67-.42-.98-.1-.27-.1-.65-.1-.94.05-1.11.29-2.66.69-4.51.15-.53.35-1.23.35-1.64-.73.13-1.34.4-1.86.82-.44.44-1.48.5-2.11-.25-.29-.41-.43-.77-.43-1.09,0-.45.23-.83.63-1.05.51-.41,1.71-.76,4.09-1.21.51-.05.58-.28.61-.38.55-1.81,1.21-3.95,1.96-6.05.38-1.02.72-2.01,1.04-2.96-2.99-.05-5,.42-5.93,1.31-.22.28-.58.46-.98.46-.32,0-.67-.14-1.11-.46-.55-.36-.84-.88-.84-1.5,0-.82.52-1.42,1.41-1.66,1.49-.64,3.29-.97,5.3-.97.95,0,1.92.07,3.15.23.85.05,1.54.41,2.02,1.06.4.51.59,1.07.59,1.7,0,.7-.32,1.75-.95,3.11l-.13.3c-.75,1.35-1.48,3.1-2.44,5.85.08.04.16.07.22.09.3.06.58.18.76.27.48.24.56.74.59.91,0,.5-.28.86-.74,1.01l-.12.04-1.08-.21s-.13.04-.31.11c0,0-.18.17-.38,1.05l-.37,1.42c-.66,2.02-1.03,3.69-1.03,4.64,0,.35,0,.62.08.92v.12c.01.58-.26.95-.73,1.11l-.08.03Zm.1-9.88l.09,1.04c0,.47-.11,1.04-.38,1.95-.38,1.75-.62,3.25-.66,4.28,0,.22,0,.49.07.68.05.25.14.45.3.7.1.18.17.22.25.23l.05-.11c-.08-.38-.08-.71-.08-1.06,0-1.06.38-2.81,1.07-4.92l.36-1.39c.23-1.04.54-1.59,1-1.74.24-.1.53-.16.75-.16l.83.15s-.01-.03-.01-.03c-.17-.08-.35-.15-.5-.18-.33-.07-.63-.25-.91-.44l-.32-.21.13-.36c1.04-3.02,1.83-4.92,2.62-6.34l.11-.27c.75-1.63.87-2.39.87-2.71,0-.4-.12-.75-.39-1.1-.31-.42-.73-.64-1.31-.67-1.22-.16-2.15-.23-3.05-.23-1.87,0-3.55.31-4.97.91-.74.2-.74.58-.74.72,0,.17.04.43.41.67.36.26.5.28.54.28.1,0,.17-.04.24-.13,1.15-1.1,3.28-1.64,6.38-1.64.54,0,.89,0,1.18.14l.38.19-.13.41c-.36,1.13-.78,2.33-1.23,3.56-.74,2.07-1.37,4.11-1.94,6-.19.63-.7,1.01-1.43,1.08-2.59.49-3.4.82-3.61,1.01l-.11.07c-.12.06-.13.13-.13.19,0,.06.05.23.22.48.1.12.24.2.36.2.18,0,.24-.04.28-.08.83-.68,1.78-1.04,2.94-1.14l.5-.04Z"/><path class="cls-1" d="m6.84,5.49c.19.33.3.65.34.97.03.27.06.53.08.78.02.25.04.5.08.77.11,1.08.22,2.15.33,3.19.11,1.04.22,2.11.33,3.19.1,1.06.21,2.11.33,3.17.12,1.06.24,2.11.37,3.17.13,1.08.26,2.15.39,3.2s.24,2.12.35,3.21c.02.15-.04.25-.17.32-.13.07-.25.11-.38.12-.2,0-.4-.04-.61-.11-.21-.08-.41-.16-.59-.26-.48-.24-.9-.56-1.28-.97-.12-.13-.22-.28-.31-.43-.09-.15-.15-.32-.18-.52-.07-.74-.13-1.48-.2-2.23-.07-.75-.12-1.51-.16-2.28-.11-1.33-.22-2.67-.34-4.01-.11-1.34-.23-2.68-.34-4.01-.06-.69-.12-1.37-.19-2.03-.07-.66-.13-1.34-.19-2.03l-.05-.41c-.04.11-.08.21-.13.31-.05.11-.09.21-.13.31-.21.52-.42,1.04-.61,1.55-.2.51-.38,1.02-.54,1.54l-.15.58c-.03.18-.1.29-.22.33l-.22.03c-.17.02-.34,0-.51-.07-.17-.07-.33-.14-.49-.22-.37-.2-.7-.46-.99-.78-.06-.07-.15-.18-.28-.34-.13-.16-.18-.3-.15-.43.27-1.08.62-2.18,1.06-3.3.09-.26.19-.51.3-.76.11-.25.22-.51.34-.77.1-.24.19-.47.29-.71.1-.24.2-.47.32-.71.1-.19.23-.37.38-.55.15-.18.32-.31.51-.38.33-.14.68-.17,1.05-.09.37.08.71.2,1.03.36.29.16.58.35.85.57.28.22.5.46.69.74Z"/><path class="cls-1" d="m33.94,2.32c.04.12.03.22-.04.3-.09.26-.17.52-.22.77-.06.26-.13.51-.22.77-.19.7-.38,1.4-.57,2.1-.19.71-.36,1.42-.52,2.14-.32,1.31-.59,2.62-.81,3.93-.23,1.31-.44,2.62-.62,3.94-.09.66-.18,1.32-.26,1.99-.08.67-.16,1.33-.23,1.99-.04.33-.07.65-.11.97-.04.31-.06.63-.07.96,0,.15,0,.3,0,.45,0,.15.02.3.04.44l.08.7v.07s.03.09.04.13c.02.04.03.08.03.13.06.12.08.23.06.35-.02.11-.1.19-.21.23-.12.04-.31.05-.56.03-.18-.03-.35-.08-.5-.16-.16-.08-.31-.16-.44-.25-.35-.21-.65-.44-.91-.71-.23-.25-.43-.5-.59-.75-.17-.25-.31-.53-.42-.85-.08-.21-.13-.44-.16-.67-.03-.23-.04-.46-.05-.69,0-.42.02-.83.08-1.22.05-.39.1-.79.15-1.19.17-1.49.38-2.97.64-4.43.26-1.46.57-2.93.94-4.39.35-1.46.74-2.92,1.17-4.36.43-1.45.91-2.89,1.44-4.32.03-.13.13-.19.29-.18.16,0,.29.01.39.03.2.03.4.1.59.21.19.11.36.22.53.33.16.11.32.23.47.37.15.14.29.29.41.45.09.14.14.27.16.39Z"/><path class="cls-1" d="m52.43,6.38c.21.5.37,1.01.49,1.55s.21,1.08.27,1.65c.08,1.06.09,2.12.05,3.17-.08,1.03-.23,2.05-.47,3.06-.24,1.01-.63,1.96-1.17,2.85-.48.78-1.05,1.5-1.72,2.15-.67.65-1.43,1.16-2.28,1.51-.45.18-.91.31-1.37.39-.46.08-.93.13-1.4.13-.62-.02-1.23-.11-1.82-.26-.59-.15-1.17-.37-1.72-.65-1.14-.54-2.12-1.29-2.96-2.26-.84-.97-1.43-2.07-1.78-3.29-.31-1.11-.44-2.22-.41-3.35.04-1.12.12-2.26.26-3.39.12-1.04.31-2.06.56-3.07.25-1.01.63-1.98,1.14-2.88.48-.8,1.09-1.53,1.85-2.17.76-.64,1.59-1.08,2.51-1.31.27-.06.53-.11.78-.15.26-.04.52-.06.8-.04.6,0,1.23.12,1.91.37.57.21,1.12.48,1.65.83.53.35.97.77,1.33,1.28.21.12.42.26.63.41.21.15.4.31.6.49.99.8,1.75,1.8,2.27,3.01Zm-2.37,4.17c.02-.62.02-1.25-.02-1.86-.04-.62-.12-1.24-.25-1.87-.1-.64-.32-1.27-.64-1.9-.06-.12-.16-.27-.28-.45,0-.05-.04-.09-.09-.14l-.04-.03s-.05-.07-.07-.08-.04-.04-.07-.08l-.12-.1-.04-.03h-.04s-.03-.03-.08-.02c0-.02-.02-.04-.04-.03-.02,0-.04,0-.06-.01-.01,0-.03-.01-.06-.01-.08-.02-.15-.03-.21-.03-.06,0-.13-.01-.21-.03-.13,0-.24-.01-.34-.01-.1,0-.21,0-.33.02-.22,0-.45-.04-.69-.14-.06-.04-.12-.07-.2-.09-.08-.01-.14-.04-.2-.09-.45-.24-.82-.52-1.11-.84-.31.09-.6.21-.87.37-.27.16-.53.33-.78.5-.68.56-1.28,1.23-1.81,2.01-.48.78-.86,1.66-1.14,2.64-.09.29-.17.58-.23.89-.06.31-.13.61-.19.92-.1.58-.18,1.17-.24,1.75-.05.58-.11,1.16-.16,1.74-.05.6-.07,1.21-.06,1.82.01.61.08,1.2.2,1.79.09.34.18.66.27.96s.21.59.37.87c.06.07.1.14.14.23.04.08.08.16.14.23l.14.21s.02.04.04.03c.03.05.06.09.09.12.03.03.06.07.09.12h.04s0,.03.02.03c.01,0,.02,0,.02.03.02,0,.04,0,.04.03.02,0,.06.02.12.06.05.02.1.03.13.04.04,0,.08.02.14.04.08.02.17.04.27.08.08.02.15.03.21.03.06,0,.13.01.21.03.53.04,1.03.01,1.52-.07,1.07-.2,2.06-.65,2.98-1.33.72-.61,1.33-1.28,1.81-2.01.25-.38.48-.79.67-1.24.19-.45.36-.89.51-1.33.15-.62.27-1.23.35-1.85.09-.62.13-1.24.13-1.86Z"/><path class="cls-1" d="m17.44,24.99c-.32,0-.54-.14-.73-.45-.18-.27-.32-.54-.36-.82-.09-.27-.09-.59-.09-.86.05-1.04.27-2.54.68-4.4.23-.77.36-1.36.36-1.77l-.05-.54c-1.04.09-1.9.41-2.63,1-.18.18-.41.23-.64.23-.27,0-.54-.14-.77-.41-.23-.32-.32-.59-.32-.77,0-.27.14-.5.41-.63.41-.36,1.72-.73,3.9-1.13.5-.04.86-.27,1-.73.59-1.95,1.22-3.99,1.95-6.03.45-1.22.86-2.4,1.22-3.54-.18-.09-.5-.09-.95-.09-2.99,0-4.99.5-5.99,1.45-.18.23-.41.32-.63.32s-.5-.14-.82-.36c-.41-.27-.63-.63-.63-1.09,0-.59.36-1,1.04-1.18,1.5-.63,3.22-.95,5.17-.95,1.04,0,2.04.09,3.08.23.77.05,1.31.36,1.68.86.32.41.5.86.5,1.41,0,.63-.32,1.63-.91,2.9l-.14.32c-.86,1.54-1.68,3.63-2.58,6.26.27.18.5.32.73.36.23.05.45.14.63.23.18.09.27.27.32.54,0,.18-.14.36-.41.45l-.95-.18c-.14,0-.36.05-.59.14-.27.09-.5.59-.68,1.41l-.09.32-.27,1.09c-.73,2.22-1.04,3.85-1.04,4.76,0,.36,0,.68.09,1.04v.09c0,.27-.14.45-.41.54h-.09Z"/><path class="cls-1" d="m17.61,25.49h-.17c-.5,0-.89-.24-1.16-.71-.23-.34-.37-.67-.42-.98-.1-.27-.1-.65-.1-.94.05-1.11.29-2.66.69-4.51.15-.53.35-1.23.35-1.64-.73.13-1.34.4-1.86.82-.44.44-1.48.49-2.11-.25-.29-.41-.43-.77-.43-1.09,0-.45.23-.83.63-1.05.51-.41,1.71-.76,4.09-1.21.51-.05.58-.28.61-.38.55-1.81,1.21-3.95,1.96-6.05.38-1.02.72-2.01,1.04-2.96-2.98-.04-5,.42-5.93,1.31-.22.28-.58.46-.98.46-.32,0-.67-.14-1.11-.46-.55-.36-.84-.88-.84-1.5,0-.82.52-1.42,1.41-1.66,1.49-.64,3.29-.97,5.3-.97.95,0,1.92.07,3.15.23.85.05,1.54.41,2.02,1.06.4.51.59,1.07.59,1.7,0,.7-.32,1.75-.95,3.11l-.13.3c-.75,1.35-1.48,3.1-2.44,5.85.08.04.16.07.22.09.3.06.58.18.76.27.48.24.56.74.59.91,0,.5-.28.86-.74,1.01l-.12.04-1.08-.21s-.13.04-.31.11c0,0-.18.17-.38,1.05l-.37,1.42c-.66,2.02-1.03,3.69-1.03,4.64,0,.35,0,.62.08.92v.12c.01.58-.26.95-.73,1.11l-.08.03Zm.1-9.88l.09,1.04c0,.47-.11,1.04-.38,1.95-.38,1.75-.62,3.25-.66,4.28,0,.22,0,.49.07.68.05.25.14.45.3.7.1.18.17.22.25.23l.05-.11c-.08-.38-.08-.71-.08-1.06,0-1.06.38-2.81,1.07-4.92l.36-1.39c.23-1.04.54-1.59,1-1.74.24-.1.53-.16.75-.16l.83.15s-.01-.03-.01-.03c-.17-.08-.35-.15-.5-.18-.33-.07-.63-.25-.91-.44l-.32-.21.13-.36c1.04-3.02,1.83-4.92,2.62-6.34l.11-.27c.75-1.63.87-2.39.87-2.71,0-.4-.12-.75-.39-1.1-.31-.42-.73-.64-1.31-.67-1.22-.16-2.15-.23-3.05-.23-1.87,0-3.55.31-4.97.91-.74.2-.74.58-.74.72,0,.17.04.43.41.67.36.26.5.28.54.28.1,0,.17-.04.24-.13,1.15-1.1,3.28-1.64,6.38-1.64.54,0,.89,0,1.18.14l.38.19-.13.41c-.36,1.13-.78,2.33-1.23,3.56-.74,2.07-1.37,4.11-1.94,6-.19.63-.7,1.01-1.43,1.08-2.59.49-3.4.82-3.61,1.01l-.11.07c-.12.06-.13.13-.13.19,0,.06.05.23.22.48.1.12.24.2.36.2.18,0,.24-.04.28-.08.83-.68,1.78-1.04,2.94-1.14l.5-.04Z"/></g></svg>