<?xml version="1.0" encoding="UTF-8"?><svg id="Layer_2" xmlns="http://www.w3.org/2000/svg" viewBox="0 0 67.15 27.54"><defs><style>.cls-1,.cls-2{fill:#fd0;}.cls-2{stroke:#fd0;stroke-miterlimit:10;}</style></defs><g id="Layer_1-2"><path class="cls-2" d="m60.26,23.32c-.32,0-.54-.14-.73-.45-.18-.27-.32-.54-.36-.82-.09-.27-.09-.59-.09-.86.04-1.04.27-2.54.68-4.4.23-.77.36-1.36.36-1.77l-.05-.54c-1.04.09-1.9.41-2.63,1-.18.18-.41.23-.63.23-.27,0-.54-.14-.77-.41-.23-.32-.32-.59-.32-.77,0-.27.14-.5.41-.63.41-.36,1.72-.73,3.9-1.13.5-.04.86-.27,1-.73.59-1.95,1.22-3.99,1.95-6.03.45-1.22.86-2.4,1.22-3.54-.18-.09-.5-.09-.95-.09-2.99,0-4.99.5-5.99,1.45-.18.23-.41.32-.63.32s-.5-.14-.82-.36c-.41-.27-.63-.63-.63-1.09,0-.59.36-1,1.04-1.18,1.5-.63,3.22-.95,5.17-.95,1.04,0,2.04.09,3.08.23.77.05,1.31.36,1.68.86.32.41.5.86.5,1.41,0,.63-.32,1.63-.91,2.9l-.14.32c-.86,1.54-1.68,3.63-2.58,6.26.27.18.5.32.73.36s.45.14.63.23c.18.09.27.27.32.54,0,.18-.14.36-.41.45l-.95-.18c-.14,0-.36.05-.59.14-.27.09-.5.59-.68,1.41l-.09.32-.27,1.09c-.73,2.22-1.04,3.85-1.04,4.76,0,.36,0,.68.09,1.04v.09c0,.27-.14.45-.41.54h-.09Z"/><path class="cls-1" d="m6.84,5.45c.19.33.3.65.34.97.03.27.06.53.08.78.02.25.04.5.08.77.11,1.08.22,2.15.33,3.19.11,1.04.22,2.11.33,3.19.1,1.06.21,2.11.33,3.17.12,1.06.24,2.11.37,3.17.13,1.08.26,2.15.39,3.2s.24,2.12.35,3.21c.02.15-.04.25-.17.32-.13.07-.25.11-.38.12-.2,0-.4-.04-.61-.11-.21-.08-.41-.16-.59-.26-.48-.24-.9-.56-1.28-.97-.12-.13-.22-.28-.31-.43s-.15-.32-.17-.52c-.07-.74-.13-1.48-.2-2.23-.07-.75-.12-1.51-.17-2.28-.11-1.33-.22-2.67-.34-4.01-.11-1.34-.23-2.68-.34-4.01-.06-.69-.12-1.37-.19-2.03-.07-.66-.13-1.34-.19-2.03l-.05-.41c-.04.11-.08.21-.13.31-.05.11-.09.21-.13.31-.21.52-.42,1.04-.61,1.55-.2.51-.38,1.02-.54,1.54l-.15.58c-.03.18-.1.29-.22.33l-.22.03c-.17.02-.34,0-.51-.07-.17-.07-.33-.14-.49-.22-.37-.2-.7-.46-.99-.78-.06-.07-.15-.18-.28-.34-.13-.16-.18-.3-.15-.43.27-1.08.62-2.18,1.06-3.3.09-.26.19-.51.3-.76.11-.25.22-.51.34-.77.1-.24.19-.47.29-.71.1-.24.2-.47.32-.71.1-.19.23-.37.38-.55.15-.18.32-.31.51-.38.33-.14.68-.17,1.05-.09.37.08.71.2,1.03.36.29.16.58.35.85.57.28.22.5.46.69.74Z"/><path class="cls-1" d="m24.19,16.42c.13.71.24,1.41.31,2.11.07.7.06,1.41-.02,2.11-.05.58-.18,1.15-.37,1.72-.19.57-.46,1.1-.8,1.59-.17.27-.35.5-.55.68-.2.19-.43.38-.67.59-.12.06-.23.13-.35.21-.12.08-.23.15-.35.21-.17.07-.33.12-.5.15-.17.03-.35.06-.55.09-.17.02-.35,0-.53-.08-.18-.08-.34-.16-.48-.24-.13-.06-.26-.13-.38-.21-.12-.09-.25-.18-.39-.29-.22-.17-.41-.4-.57-.68-.11-.11-.15-.23-.12-.36l.05-.19c.09-.08.17-.17.25-.25.08-.08.17-.16.29-.22.18-.12.32-.23.41-.31.5-.38.94-.89,1.31-1.5.21-.3.39-.6.53-.89.14-.29.26-.6.37-.94.21-.77.29-1.55.26-2.33-.03-.78-.12-1.56-.27-2.34-.12-.56-.25-1.1-.4-1.63-.15-.53-.32-1.07-.51-1.62-.31.91-.65,1.81-1,2.7-.35.89-.72,1.78-1.11,2.67-.21.5-.47.99-.77,1.48-.3.48-.71.86-1.23,1.12-.35.19-.73.28-1.13.25-.4-.03-.78-.1-1.15-.23-.52-.16-1-.41-1.44-.76-.52-.36-1-.81-1.43-1.36-.42-.55-.68-1.16-.78-1.85-.11-.68-.18-1.35-.2-1.99-.02-.57,0-1.14.03-1.72.04-.58.13-1.15.26-1.71.21-1.17.54-2.3,1.01-3.39.47-1.09,1.05-2.11,1.76-3.07.38-.57.84-1.01,1.37-1.32.37-.22.76-.33,1.16-.33s.79.08,1.19.23c.49.14.93.36,1.31.66.22.15.42.3.62.47.19.16.36.34.51.52.44.52.78,1.1,1.03,1.74.1.21.05.39-.16.54-.09.06-.2.08-.33.06-.13-.02-.24-.05-.35-.09-.29-.09-.59-.24-.91-.45-.16-.1-.33-.23-.51-.39-.18-.15-.3-.3-.37-.44-.03-.07-.07-.13-.1-.19-.03-.06-.07-.12-.1-.19-.12.06-.27.16-.45.28-.41.35-.76.76-1.06,1.23-.3.47-.58.94-.82,1.39-.53.96-.94,1.94-1.21,2.95-.16.54-.28,1.09-.36,1.63-.08.55-.15,1.1-.21,1.65-.03.55-.04,1.11-.02,1.67.02.56.08,1.1.2,1.64v.07s.15-.09.15-.09c.25-.23.46-.49.65-.77.19-.29.37-.57.53-.87.71-1.35,1.33-2.74,1.87-4.16.54-1.42,1.03-2.87,1.47-4.34-.02-.12.04-.22.15-.28.09-.11.19-.15.32-.11.12.01.24.03.34.05.1.03.22.06.35.09.34.16.68.35,1,.59.14.11.28.22.42.34.14.12.24.25.31.39.41.72.79,1.45,1.14,2.2.35.74.67,1.49.96,2.25.48,1.29.86,2.58,1.14,3.89Z"/><path class="cls-1" d="m33.64,2.32c.04.12.03.22-.04.3-.09.26-.17.52-.22.77-.06.26-.13.51-.22.77-.19.69-.38,1.4-.57,2.1-.19.71-.36,1.42-.53,2.14-.31,1.31-.59,2.62-.81,3.93-.23,1.31-.43,2.62-.62,3.94-.09.66-.18,1.32-.26,1.99-.08.67-.16,1.33-.23,1.99-.04.33-.07.65-.11.97-.04.31-.06.63-.07.96,0,.15,0,.3,0,.45s.02.3.04.44l.08.7v.07s.03.09.04.13.03.08.03.13c.06.12.08.23.06.35-.02.11-.09.19-.21.23-.12.04-.31.05-.56.03-.18-.03-.35-.08-.51-.16-.16-.08-.31-.16-.44-.25-.35-.21-.65-.44-.91-.71-.23-.25-.43-.5-.59-.75-.17-.25-.31-.53-.42-.84-.08-.21-.13-.44-.16-.67-.03-.23-.04-.46-.05-.69,0-.42.02-.83.08-1.22.05-.39.1-.79.15-1.19.17-1.49.38-2.97.64-4.43.26-1.46.57-2.93.94-4.39.35-1.46.73-2.92,1.17-4.36.43-1.45.91-2.89,1.44-4.32.03-.13.13-.19.29-.18.16,0,.29.01.4.03.2.03.4.1.59.21.19.11.36.22.53.33.16.1.32.23.47.37.15.14.29.29.41.45.09.14.14.27.16.39Z"/><path class="cls-1" d="m52.13,6.38c.21.5.37,1.01.49,1.55.12.53.21,1.08.27,1.65.08,1.06.09,2.12.05,3.17-.08,1.03-.23,2.05-.47,3.06-.24,1.01-.63,1.96-1.17,2.85-.48.78-1.05,1.5-1.72,2.15-.67.65-1.43,1.16-2.28,1.51-.45.18-.91.31-1.37.39-.46.08-.93.13-1.4.13-.63-.02-1.23-.11-1.83-.26-.59-.15-1.17-.37-1.72-.65-1.14-.54-2.12-1.29-2.96-2.26-.84-.97-1.43-2.07-1.78-3.29-.31-1.11-.44-2.22-.41-3.35.04-1.12.12-2.26.26-3.39.12-1.04.31-2.06.56-3.07.25-1.01.63-1.98,1.14-2.88.47-.8,1.09-1.53,1.85-2.17.76-.64,1.59-1.08,2.51-1.31.27-.06.53-.11.78-.15.26-.04.52-.06.8-.04.6,0,1.23.12,1.91.37.57.21,1.12.48,1.65.83.53.35.97.77,1.33,1.28.21.12.42.26.63.41.21.15.41.31.6.49.99.8,1.75,1.8,2.27,3.01Zm-2.37,4.17c.02-.62.02-1.25-.02-1.86-.04-.62-.12-1.24-.25-1.88-.1-.64-.32-1.27-.64-1.9-.06-.12-.16-.27-.28-.45,0-.05-.04-.09-.09-.14l-.04-.03s-.05-.07-.07-.08-.04-.04-.07-.08l-.12-.1-.04-.03h-.04s-.03-.03-.08-.02c0-.02-.02-.04-.04-.03-.03,0-.04,0-.06-.01-.01-.01-.03-.01-.06-.01-.08-.02-.15-.03-.21-.03-.06,0-.13-.02-.21-.03-.13,0-.24-.01-.34-.01-.1,0-.21,0-.33.02-.22,0-.45-.04-.69-.14-.06-.04-.12-.07-.2-.09-.08-.01-.14-.04-.2-.09-.45-.24-.82-.52-1.11-.84-.31.09-.6.21-.87.37-.27.16-.53.33-.78.5-.68.56-1.28,1.23-1.81,2.01-.48.78-.86,1.66-1.14,2.64-.09.29-.17.58-.23.89-.06.31-.12.61-.19.92-.1.58-.18,1.17-.24,1.75-.05.58-.11,1.16-.16,1.74-.05.6-.07,1.21-.06,1.82.01.61.08,1.2.2,1.79.09.34.18.66.27.96.09.3.21.59.37.87.06.07.1.14.14.23.03.08.08.16.14.23l.14.21s.02.04.04.03c.03.05.06.09.09.12.03.03.06.07.09.12h.04s0,.03.02.03.02,0,.02.03c.02,0,.04,0,.04.03.02,0,.06.02.12.06.05.02.1.03.14.04.04,0,.08.02.13.04.08.02.17.04.27.08.08.02.15.03.21.03.06,0,.13.01.21.03.53.04,1.03.01,1.52-.07,1.07-.2,2.06-.65,2.97-1.33.72-.61,1.33-1.28,1.81-2.01.25-.38.48-.79.67-1.24.19-.45.36-.89.51-1.33.15-.62.27-1.23.35-1.85.09-.62.13-1.24.13-1.86Z"/></g></svg>