<?xml version="1.0" encoding="UTF-8"?><svg id="Layer_2" xmlns="http://www.w3.org/2000/svg" viewBox="0 0 69.26 27.57"><defs><style>.cls-1,.cls-2{fill:#fd0;}.cls-2{stroke:#fd0;stroke-miterlimit:10;}</style></defs><g id="Layer_1-2"><path class="cls-2" d="m62.37,23.26c-.32,0-.54-.14-.73-.45-.18-.27-.32-.54-.36-.82-.09-.27-.09-.59-.09-.86.04-1.04.27-2.54.68-4.4.23-.77.36-1.36.36-1.77l-.05-.54c-1.04.09-1.9.41-2.63,1-.18.18-.41.23-.63.23-.27,0-.54-.14-.77-.41-.23-.32-.32-.59-.32-.77,0-.27.14-.5.41-.63.41-.36,1.72-.73,3.9-1.13.5-.04.86-.27,1-.73.59-1.95,1.22-3.99,1.95-6.03.45-1.22.86-2.4,1.22-3.54-.18-.09-.5-.09-.95-.09-2.99,0-4.99.5-5.99,1.45-.18.23-.41.32-.63.32s-.5-.14-.82-.36c-.41-.27-.63-.63-.63-1.09,0-.59.36-1,1.04-1.18,1.5-.63,3.22-.95,5.17-.95,1.04,0,2.04.09,3.08.23.77.05,1.31.36,1.68.86.32.41.5.86.5,1.41,0,.63-.32,1.63-.91,2.9l-.14.32c-.86,1.54-1.68,3.63-2.58,6.26.27.18.5.32.73.36.23.04.45.14.63.23s.27.27.32.54c0,.18-.14.36-.41.45l-.95-.18c-.14,0-.36.04-.59.14-.27.09-.5.59-.68,1.41l-.09.32-.27,1.09c-.73,2.22-1.04,3.85-1.04,4.76,0,.36,0,.68.09,1.04v.09c0,.27-.14.45-.41.54h-.09Z"/><path class="cls-1" d="m11.04,13.67c-.2,1.22-.45,2.41-.76,3.56s-.66,2.32-1.07,3.49c-.2.6-.41,1.2-.64,1.81-.23.61-.45,1.22-.68,1.82.46-.08.92-.16,1.37-.24.45-.08.92-.16,1.41-.25.17,0,.39.05.65.15l.39.18c.16.08.31.18.47.3s.3.23.43.34c.23.22.39.46.5.72.06.07.08.17.06.31-.02.14-.09.22-.21.23-1.09.26-2.17.49-3.26.71s-2.17.46-3.26.71c-.36.09-.72.06-1.08-.11-.36-.17-.69-.37-.99-.61-.14-.11-.28-.22-.42-.34-.14-.12-.27-.27-.39-.46-.06-.12-.12-.24-.16-.37s-.03-.26.03-.39c.15-.37.3-.73.43-1.08.13-.35.27-.71.43-1.08.49-1.25.98-2.5,1.45-3.74.47-1.24.9-2.52,1.29-3.83.17-.62.33-1.24.48-1.87.15-.63.28-1.27.4-1.93s.22-1.33.3-2c.08-.67.06-1.33-.07-1.99-.05-.24-.15-.52-.29-.82v-.04s-.37.04-.37.04c-.34.09-.65.21-.95.36-.29.15-.56.32-.81.53-.61.5-1.13,1.07-1.57,1.7s-.77,1.33-1,2.08c-.07.26-.13.51-.17.75-.05.24-.05.5-.02.77.03.02.05.07.06.14.2.25.32.47.34.67,0,.12-.06.21-.15.26-.09.05-.19.08-.29.09-.17.02-.36,0-.55-.08-.2-.08-.36-.14-.49-.2-.19-.1-.37-.22-.55-.34-.18-.13-.34-.28-.49-.46-.31-.29-.54-.63-.69-1.04-.19-.55-.22-1.11-.09-1.67.13-.56.3-1.09.52-1.59.36-.91.91-1.75,1.64-2.51.38-.4.8-.75,1.27-1.07.47-.32.99-.54,1.54-.65.8-.15,1.57-.08,2.3.21.47.17.91.39,1.33.68.42.28.8.62,1.15,1,.48.46.84,1.01,1.09,1.62.25.62.39,1.26.42,1.93.05.59.03,1.19-.04,1.8-.08.61-.16,1.21-.26,1.83Z"/><path class="cls-1" d="m23.53,13.5c.71.56,1.27,1.26,1.68,2.11.4.85.56,1.74.47,2.67-.05.43-.13.86-.26,1.28-.12.42-.27.85-.44,1.27-.16.37-.32.72-.49,1.05-.17.33-.37.66-.61.99-.45.63-.99,1.15-1.62,1.58-.63.42-1.35.65-2.14.67-1,0-1.92-.25-2.78-.75-.53-.29-1.03-.63-1.49-1.05-.46-.42-.79-.93-.99-1.52-.1-.24-.05-.43.15-.58.12-.06.27-.07.45-.02.18.05.34.1.46.13.21.08.42.17.63.3.21.12.41.26.57.42.2.18.37.38.52.61.12,0,.31,0,.56-.03.29-.09.56-.19.8-.32.25-.13.49-.29.75-.46.62-.47,1.13-1.07,1.54-1.79.46-.73.81-1.52,1.06-2.37.25-.8.32-1.58.2-2.34-.04-.14-.08-.28-.12-.42s-.09-.26-.16-.37c-.06-.04-.08-.09-.09-.14-.13,0-.31,0-.56.03-.39.1-.76.23-1.11.4-.35.17-.7.36-1.05.58-.17.05-.36.04-.56,0-.15-.03-.27-.07-.35-.11-.18-.05-.35-.13-.51-.24-.16-.1-.31-.21-.45-.32-.3-.19-.54-.43-.72-.73-.06-.09-.12-.21-.17-.35-.06-.14-.05-.27.01-.38.62-.87,1.16-1.78,1.63-2.72.47-.94.85-1.93,1.15-2.96.07-.26.12-.52.17-.79.04-.27.05-.53.01-.8h-.04c-.48.14-.87.32-1.17.56-.32.26-.59.55-.83.87-.24.32-.46.66-.66,1.03-.2.37-.4.75-.59,1.12-.19.37-.35.75-.48,1.14-.1.39-.13.76-.09,1.13.04.12,0,.21-.1.25-.11.05-.21.08-.31.09-.17.02-.34,0-.51-.07-.17-.07-.32-.14-.46-.23-.42-.2-.75-.44-.99-.74-.2-.2-.33-.45-.39-.74-.08-.44-.05-.87.07-1.3.12-.42.26-.82.42-1.19.15-.37.32-.72.49-1.07.17-.34.36-.69.56-1.04.38-.59.86-1.1,1.46-1.52.25-.18.53-.31.83-.4.3-.08.6-.13.9-.15.42-.03.83.01,1.24.11.41.1.8.25,1.18.45.51.29.98.65,1.42,1.08.44.43.74.92.91,1.48.1.39.14.76.12,1.12-.02.36-.07.72-.15,1.08-.1.39-.22.76-.35,1.13-.13.36-.27.73-.43,1.1-.06.16-.12.31-.19.47-.07.16-.14.32-.22.48.41.12.81.29,1.18.51.38.22.71.46,1.02.72Z"/><path class="cls-1" d="m35,3.11c.04.12.03.22-.04.3-.09.26-.17.52-.22.77-.06.26-.13.51-.22.77-.19.69-.38,1.4-.57,2.1-.19.71-.36,1.42-.53,2.14-.31,1.31-.58,2.62-.81,3.93-.23,1.31-.43,2.62-.62,3.94-.09.66-.18,1.32-.26,1.99-.08.67-.16,1.33-.23,1.99-.04.33-.07.65-.11.96-.04.32-.06.63-.07.96,0,.15,0,.3,0,.45,0,.15.02.3.04.44l.08.7v.07s.03.09.04.13c.02.04.03.08.03.13.06.12.08.23.06.35-.02.11-.09.19-.21.23-.12.04-.31.05-.56.03-.18-.03-.35-.08-.51-.16-.16-.08-.31-.16-.44-.24-.35-.21-.65-.44-.91-.71-.23-.25-.43-.5-.59-.75-.17-.25-.31-.53-.42-.84-.08-.21-.13-.44-.16-.67-.03-.23-.04-.46-.05-.69,0-.42.02-.83.08-1.22s.1-.79.15-1.2c.17-1.49.38-2.96.64-4.43.26-1.46.57-2.93.94-4.39.35-1.46.73-2.92,1.17-4.36.43-1.45.91-2.89,1.44-4.32.03-.13.13-.19.3-.18.16,0,.29.01.39.03.2.03.4.1.59.21.19.11.36.22.53.33.16.11.32.23.47.37.15.14.29.29.41.45.09.14.14.27.16.39Z"/><path class="cls-1" d="m53.49,7.17c.21.5.37,1.01.49,1.55.11.53.21,1.08.27,1.65.08,1.06.09,2.12.05,3.17-.07,1.03-.23,2.05-.47,3.06-.24,1.01-.63,1.96-1.17,2.85-.48.78-1.05,1.5-1.72,2.15-.67.65-1.43,1.16-2.28,1.51-.45.18-.91.31-1.37.39-.46.08-.93.13-1.4.13-.62-.02-1.23-.11-1.83-.26-.59-.15-1.16-.37-1.72-.65-1.14-.54-2.12-1.29-2.96-2.26-.84-.97-1.43-2.07-1.78-3.29-.31-1.11-.44-2.22-.41-3.35s.12-2.26.26-3.39c.12-1.04.31-2.06.56-3.07.25-1.01.63-1.98,1.14-2.88.48-.8,1.09-1.53,1.85-2.17.76-.64,1.59-1.08,2.51-1.31.27-.06.53-.11.78-.15.26-.04.52-.06.8-.04.6,0,1.23.12,1.91.37.57.21,1.12.48,1.65.83.53.35.97.77,1.33,1.28.21.12.42.26.63.41.2.15.4.31.6.49.99.8,1.75,1.8,2.27,3.01Zm-2.37,4.17c.02-.62.02-1.25-.02-1.86-.04-.62-.12-1.24-.25-1.87-.1-.64-.32-1.27-.64-1.9-.06-.12-.16-.27-.28-.45,0-.05-.04-.09-.09-.14l-.04-.03s-.05-.07-.07-.08-.04-.04-.07-.08l-.12-.1-.04-.03h-.04s-.03-.03-.08-.02c0-.02-.02-.04-.04-.03-.02,0-.04,0-.06-.01-.01-.01-.03-.01-.06-.01-.08-.02-.15-.03-.21-.03-.06,0-.13-.01-.21-.03-.13,0-.24-.01-.34-.01-.1,0-.21,0-.33.02-.22,0-.45-.04-.69-.14-.06-.04-.12-.07-.2-.09-.08-.01-.14-.04-.2-.09-.45-.24-.82-.52-1.11-.84-.31.09-.6.21-.87.37-.27.16-.53.33-.78.5-.68.56-1.28,1.23-1.81,2.01-.48.78-.86,1.66-1.14,2.64-.09.29-.17.58-.23.89-.06.31-.13.61-.19.92-.1.58-.18,1.17-.24,1.75-.05.58-.11,1.16-.16,1.74-.05.6-.07,1.21-.06,1.82.01.61.08,1.2.2,1.79.09.34.18.66.27.96.09.3.21.59.37.87.06.07.1.14.14.23s.08.16.14.23l.14.21s.02.04.04.03c.03.05.06.09.09.12s.06.07.09.12h.04s.01.03.02.03c.01,0,.02,0,.02.03.02,0,.04,0,.04.03.02,0,.06.02.12.06.05.02.1.03.13.04.04,0,.08.02.14.04.08.02.17.04.27.08.08.02.15.03.21.03.06,0,.13.01.21.03.53.04,1.03.01,1.52-.07,1.07-.2,2.06-.65,2.98-1.33.72-.61,1.33-1.28,1.81-2.01.25-.38.48-.79.67-1.24.19-.45.37-.89.51-1.33.15-.62.27-1.23.35-1.85.09-.62.13-1.24.13-1.86Z"/></g></svg>