<?xml version="1.0" encoding="UTF-8"?><svg id="Layer_2" xmlns="http://www.w3.org/2000/svg" viewBox="0 0 68.26 27.57"><defs><style>.cls-1,.cls-2{fill:#fd0;}.cls-2{stroke:#fd0;stroke-miterlimit:10;}</style></defs><g id="Layer_1-2"><path class="cls-2" d="m61.37,23.27c-.32,0-.54-.14-.73-.45-.18-.27-.32-.54-.36-.82-.09-.27-.09-.59-.09-.86.05-1.04.27-2.54.68-4.4.23-.77.36-1.36.36-1.77l-.05-.54c-1.04.09-1.9.41-2.63,1-.18.18-.41.23-.64.23-.27,0-.54-.14-.77-.41-.23-.32-.32-.59-.32-.77,0-.27.14-.5.41-.63.41-.36,1.72-.73,3.9-1.13.5-.04.86-.27,1-.73.59-1.95,1.22-3.99,1.95-6.03.45-1.22.86-2.4,1.22-3.54-.18-.09-.5-.09-.95-.09-2.99,0-4.99.5-5.99,1.45-.18.23-.41.32-.63.32s-.5-.14-.82-.36c-.41-.27-.63-.63-.63-1.09,0-.59.36-1,1.04-1.18,1.5-.63,3.22-.95,5.17-.95,1.04,0,2.04.09,3.08.23.77.05,1.31.36,1.68.86.32.41.5.86.5,1.41,0,.63-.32,1.63-.91,2.9l-.14.32c-.86,1.54-1.68,3.63-2.58,6.26.27.18.5.32.73.36.23.05.45.14.63.23.18.09.27.27.32.54,0,.18-.14.36-.41.45l-.95-.18c-.14,0-.36.05-.59.14-.27.09-.5.59-.68,1.41l-.09.32-.27,1.09c-.73,2.22-1.04,3.85-1.04,4.76,0,.36,0,.68.09,1.04v.09c0,.27-.14.45-.41.54h-.09Z"/><path class="cls-1" d="m11.04,13.67c-.2,1.22-.45,2.41-.76,3.56s-.66,2.32-1.07,3.49c-.2.6-.41,1.2-.64,1.81-.23.61-.45,1.22-.68,1.82.46-.08.92-.16,1.37-.24.45-.08.92-.16,1.41-.25.17,0,.39.05.65.15l.39.18c.16.08.31.18.47.3s.3.23.43.34c.23.22.39.46.5.72.06.07.08.17.06.31-.02.14-.09.22-.21.23-1.09.26-2.17.49-3.26.71s-2.17.46-3.26.71c-.36.09-.72.06-1.08-.11-.36-.17-.69-.37-.99-.61-.14-.11-.28-.22-.42-.34-.14-.12-.27-.27-.39-.46-.06-.12-.12-.24-.16-.37s-.03-.26.03-.39c.15-.37.3-.73.43-1.08.13-.35.27-.71.43-1.08.49-1.25.98-2.5,1.45-3.74.47-1.24.9-2.52,1.29-3.83.17-.62.33-1.24.48-1.87.15-.63.28-1.27.4-1.93s.22-1.33.3-2c.08-.67.06-1.33-.07-1.99-.05-.24-.15-.52-.29-.82v-.04s-.37.04-.37.04c-.34.09-.65.21-.95.36-.29.15-.56.32-.81.53-.61.5-1.13,1.07-1.57,1.7s-.77,1.33-1,2.08c-.07.26-.13.51-.17.75-.05.24-.05.5-.02.77.03.02.05.07.06.14.2.25.32.47.34.67,0,.12-.06.21-.15.26-.09.05-.19.08-.29.09-.17.02-.36,0-.55-.08-.2-.08-.36-.14-.49-.2-.19-.1-.37-.22-.55-.34-.18-.13-.34-.28-.49-.46-.31-.29-.54-.63-.69-1.04-.19-.55-.22-1.11-.09-1.67.13-.56.3-1.09.52-1.59.36-.91.91-1.75,1.64-2.51.38-.4.8-.75,1.27-1.07.47-.32.99-.54,1.54-.65.8-.15,1.57-.08,2.3.21.47.17.91.39,1.33.68.42.28.8.62,1.15,1,.48.46.84,1.01,1.09,1.62.25.62.39,1.26.42,1.93.05.59.03,1.19-.04,1.8-.08.61-.16,1.21-.26,1.83Z"/><path class="cls-1" d="m24.22,5.31c.31.51.48,1.09.51,1.73.03.27.04.52.04.76,0,.24-.02.49-.04.77l-.06,1.69-.23,3.35c-.04.28-.08.56-.1.83-.03.28-.05.55-.07.83l-.1.69c.52,1.01.78,2.06.79,3.15.02,1.22-.29,2.35-.93,3.4-.29.48-.64.92-1.05,1.32-.41.4-.86.73-1.36.99-.56.29-1.17.45-1.81.48-.64.03-1.27-.08-1.87-.33-.58-.25-1.12-.57-1.63-.94-.51-.37-.92-.83-1.23-1.36-.21-.32-.37-.66-.46-1.01-.09-.35-.19-.71-.28-1.07-.13-.63-.21-1.29-.26-1.97-.04-.68-.04-1.34,0-2,.03-.6.08-1.2.17-1.79.09-.6.23-1.19.44-1.79.18-.52.43-1,.72-1.43.3-.43.67-.8,1.13-1.11.17-.05.34-.04.52.01-.06-.09-.13-.18-.22-.27-.41-.47-.81-.97-1.21-1.5-.4-.52-.66-1.1-.79-1.73-.08-.49,0-.97.27-1.45.18-.32.47-.63.86-.93.38-.32.8-.64,1.25-.95s.92-.55,1.43-.71c.6-.2,1.2-.24,1.79-.14s1.16.31,1.7.62c.4.23.78.5,1.14.81.36.32.67.67.91,1.07Zm-2.68,13.58c.25-.83.3-1.67.14-2.52l-.25-.23c-.11-.11-.21-.24-.31-.37-.09-.14-.13-.27-.12-.4l-.02-.78-.13-.17c-.06-.04-.13-.12-.21-.22-.09-.1-.06-.1.08,0l-.17-.2-.6-.6c-.12-.13-.21-.24-.3-.3l-.09-.1-.38-.36h-.07c-.34.3-.62.63-.83,1-.22.38-.4.77-.55,1.19-.13.56-.22,1.14-.28,1.73-.05.59-.08,1.17-.09,1.75,0,.67.04,1.33.11,1.99s.16,1.31.29,1.96l.12.36c.58-.17,1.14-.45,1.69-.84.95-.76,1.61-1.73,1.96-2.89Zm-2.29-12.46c-.25.21-.5.42-.74.65s-.42.5-.54.81c-.04.13-.04.33,0,.6.01.1.05.24.13.43l.37.55h.04s.14.2.14.2c.05.04.11.1.17.17.06.07.12.14.17.2l.65.74,1.37,1.44.16.13c.05-.6.1-1.21.15-1.81.05-.6.1-1.21.15-1.81l.16-2.07c.02-.25.03-.5.02-.75,0-.25-.02-.5-.05-.74h-.07c-.41.11-.8.27-1.17.51-.37.23-.74.48-1.1.75Z"/><path class="cls-1" d="m35.15,3.09c.04.12.03.22-.04.3-.09.26-.17.52-.22.77-.06.26-.13.51-.22.77-.19.69-.38,1.4-.57,2.1-.19.71-.36,1.42-.53,2.14-.31,1.31-.59,2.62-.81,3.93-.23,1.31-.43,2.62-.62,3.94-.09.66-.18,1.32-.26,1.99-.08.67-.16,1.33-.23,1.99-.04.33-.07.65-.11.96-.04.31-.06.63-.07.96,0,.15,0,.3,0,.45,0,.15.02.3.03.44l.08.7v.07s.03.09.04.13c.02.04.03.08.03.13.06.12.08.23.06.35-.02.12-.09.19-.21.23-.12.04-.31.05-.56.03-.18-.03-.35-.08-.51-.16-.16-.08-.31-.16-.44-.25-.35-.21-.65-.44-.91-.71-.23-.25-.43-.5-.59-.75-.17-.25-.31-.53-.42-.84-.08-.21-.13-.44-.16-.67-.03-.23-.04-.46-.04-.69,0-.42.02-.83.08-1.22.05-.39.1-.79.15-1.19.17-1.49.38-2.97.64-4.43.26-1.46.57-2.93.94-4.39.35-1.46.74-2.92,1.17-4.36.43-1.45.91-2.89,1.44-4.32.03-.13.13-.19.29-.18.16,0,.29.01.4.03.2.03.4.1.59.21.19.11.36.22.53.33.16.11.32.23.47.37.15.14.29.29.41.45.09.14.14.27.16.39Z"/><path class="cls-1" d="m53.64,7.16c.21.5.37,1.01.49,1.55.11.53.21,1.08.27,1.65.08,1.06.09,2.12.05,3.17-.07,1.03-.23,2.05-.47,3.06-.24,1.01-.63,1.96-1.17,2.85-.48.78-1.05,1.5-1.72,2.15-.67.65-1.43,1.16-2.28,1.51-.45.18-.91.31-1.37.39-.46.08-.93.13-1.4.13-.62-.02-1.23-.11-1.83-.26-.59-.15-1.16-.37-1.72-.65-1.14-.54-2.12-1.29-2.96-2.26-.84-.97-1.43-2.07-1.78-3.29-.31-1.11-.44-2.22-.41-3.35.04-1.12.12-2.25.26-3.39.12-1.04.31-2.06.56-3.07.25-1.01.63-1.98,1.14-2.88.47-.8,1.09-1.53,1.85-2.17.76-.64,1.59-1.08,2.51-1.31.27-.06.53-.11.78-.15.26-.04.52-.06.8-.04.6,0,1.23.12,1.91.37.57.21,1.12.48,1.65.83.53.35.97.77,1.33,1.28.21.12.42.26.63.41.2.15.41.31.6.49.99.8,1.75,1.8,2.27,3.01Zm-2.37,4.17c.02-.62.02-1.25-.02-1.86-.04-.62-.12-1.24-.25-1.88-.1-.64-.32-1.27-.64-1.9-.07-.12-.16-.27-.28-.45,0-.05-.04-.09-.09-.14l-.04-.03s-.05-.07-.07-.08c-.01-.01-.04-.04-.07-.09l-.12-.1-.04-.03h-.04s-.03-.03-.08-.02c0-.02-.02-.04-.04-.03-.03,0-.04,0-.06-.01s-.03-.01-.06-.01c-.08-.02-.15-.03-.21-.03-.06,0-.13-.01-.21-.03-.13,0-.24-.01-.34-.01-.1,0-.21,0-.33.02-.22,0-.45-.04-.69-.14-.05-.04-.12-.07-.2-.09-.08-.01-.14-.04-.2-.09-.45-.24-.82-.52-1.11-.84-.31.09-.6.21-.87.37-.27.16-.53.33-.78.5-.68.56-1.28,1.23-1.81,2.01-.48.78-.86,1.66-1.14,2.64-.09.29-.17.58-.23.89-.06.31-.12.61-.19.92-.1.58-.18,1.17-.24,1.75-.05.58-.11,1.16-.16,1.74-.05.61-.07,1.21-.06,1.82.01.61.08,1.2.2,1.79.09.34.18.66.27.96.09.3.21.59.37.87.06.07.11.14.14.23.03.08.08.16.14.23l.14.21s.02.04.04.03c.03.05.06.09.09.12.03.03.06.07.09.12h.04s.01.03.02.03c.01,0,.02,0,.02.03.02,0,.04,0,.04.03.03,0,.06.02.12.06.05.02.1.03.13.04.04,0,.08.02.14.04.08.02.17.04.27.08.08.02.15.03.21.03.06,0,.13.01.21.03.53.04,1.03.01,1.52-.07,1.07-.2,2.06-.65,2.98-1.33.72-.61,1.33-1.28,1.81-2.01.25-.38.48-.79.67-1.24s.37-.89.51-1.33c.15-.62.27-1.23.35-1.85.09-.62.13-1.24.13-1.86Z"/></g></svg>